HIERARCHY
ROOT Pelvis
{
	OFFSET 0.000000 0.000000 0.000000
	CHANNELS 6 Xposition Yposition Zposition Xrotation Yrotation Zrotation
	JOINT LeftUpLeg_virtual
	{
		OFFSET 0.000000 0.000000 0.000000
		CHANNELS 3 Xrotation Yrotation Zrotation
		JOINT LeftUpLeg
		{
			OFFSET 18.735201 -5.666702 -4.541200
			CHANNELS 3 Xrotation Yrotation Zrotation
			JOINT LeftLeg
			{
				OFFSET -0.021200 -31.938179 0.493100
				CHANNELS 3 Xrotation Yrotation Zrotation
				JOINT LeftFoot
				{
					OFFSET 0.021200 -31.938179 -4.336299
					CHANNELS 3 Xrotation Yrotation Zrotation
					JOINT LeftToeBase
					{
						OFFSET 0.943001 -26.722000 15.023500
						CHANNELS 3 Xrotation Yrotation Zrotation
						End Site
						{
							OFFSET 0 0 0
						}
					}
				}
			}
		}
	}
	JOINT RightUpLeg_virtual
	{
		OFFSET 0.000000 0.000000 0.000000
		CHANNELS 3 Xrotation Yrotation Zrotation
		JOINT RightUpLeg
		{
			OFFSET -18.735201 -5.666702 -4.541200
			CHANNELS 3 Xrotation Yrotation Zrotation
			JOINT RightLeg
			{
				OFFSET 0.018946 -31.938133 0.493100
				CHANNELS 3 Xrotation Yrotation Zrotation
				JOINT RightFoot
				{
					OFFSET -0.018946 -31.938126 -4.336299
					CHANNELS 3 Xrotation Yrotation Zrotation
					JOINT RightToeBase
					{
						OFFSET -0.943001 -26.722004 15.023500
						CHANNELS 3 Xrotation Yrotation Zrotation
						End Site
						{
							OFFSET 0 0 0
						}
					}
				}
			}
		}
	}
	JOINT Hips_virtual
	{
		OFFSET 0.000000 0.000000 0.000000
		CHANNELS 3 Xrotation Yrotation Zrotation
		JOINT Hips
		{
			OFFSET -0.000000 -0.000000 -0.000000
			CHANNELS 3 Xrotation Yrotation Zrotation
			JOINT Spine
			{
				OFFSET 0.000000 10.199997 -0.299500
				CHANNELS 3 Xrotation Yrotation Zrotation
				JOINT Spine1
				{
					OFFSET 0.000000 11.900002 -1.516600
					CHANNELS 3 Xrotation Yrotation Zrotation
					JOINT Spine2
					{
						OFFSET 0.000000 13.600006 -2.842500
						CHANNELS 3 Xrotation Yrotation Zrotation
						JOINT Neck_virtual
						{
							OFFSET 0.000000 0.000000 0.000000
							CHANNELS 3 Xrotation Yrotation Zrotation
							JOINT Neck
							{
								OFFSET 0.000000 9.624100 -2.890100
								CHANNELS 3 Xrotation Yrotation Zrotation
								JOINT Head
								{
									OFFSET 0.000000 14.068802 -1.351900
									CHANNELS 3 Xrotation Yrotation Zrotation
									End Site
									{
										OFFSET 0 0 0
									}
								}
							}
						}
						JOINT LeftShoulder_virtual
						{
							OFFSET 0.000000 0.000000 0.000000
							CHANNELS 3 Xrotation Yrotation Zrotation
							JOINT LeftShoulder
							{
								OFFSET 15.263000 10.923401 -0.547700
								CHANNELS 3 Xrotation Yrotation Zrotation
								JOINT LeftArm
								{
									OFFSET 25.438599 -2.830597 -13.032500
									CHANNELS 3 Xrotation Yrotation Zrotation
									JOINT LeftForeArm
									{
										OFFSET 29.960503 0.000000 0.000000
										CHANNELS 3 Xrotation Yrotation Zrotation
										JOINT LeftHand
										{
											OFFSET 27.849251 0.000000 0.000000
											CHANNELS 3 Xrotation Yrotation Zrotation
											End Site
											{
												OFFSET 0 0 0
											}
										}
									}
								}
							}
						}
						JOINT RightShoulder_virtual
						{
							OFFSET 0.000000 0.000000 0.000000
							CHANNELS 3 Xrotation Yrotation Zrotation
							JOINT RightShoulder
							{
								OFFSET -15.263000 10.923401 -0.547700
								CHANNELS 3 Xrotation Yrotation Zrotation
								JOINT RightArm
								{
									OFFSET -25.438599 -2.830597 -13.032500
									CHANNELS 3 Xrotation Yrotation Zrotation
									JOINT RightForeArm
									{
										OFFSET -29.960503 0.000000 0.000000
										CHANNELS 3 Xrotation Yrotation Zrotation
										JOINT RightHand
										{
											OFFSET -27.849251 0.000000 0.000000
											CHANNELS 3 Xrotation Yrotation Zrotation
											End Site
											{
												OFFSET 0 0 0
											}
										}
									}
								}
							}
						}
					}
				}
			}
		}
	}
}
MOTION
Frames: 10
Frame Time: 0.03333333
6.675853 75.184059 -4.771011 0.000000 0.000000 0.000000 89.779251 -87.132491 92.969311 -35.324967 -16.966538 15.888753 53.670431 -10.637659 20.764895 -19.487090 -2.621229 -25.412106 0.000000 0.000000 0.000000 68.019272 -85.906144 70.242246 -21.494037 10.323044 -34.803150 49.779276 10.054225 -8.919880 -30.775432 0.138183 31.086520 0.000000 0.000000 0.000000 51.673786 -85.158430 54.851552 -1.120285 3.303393 -0.039052 2.659629 3.892740 2.914836 -0.003112 3.659183 0.962632 0.000000 0.000000 0.000000 0.686965 3.715665 0.755073 -1.415506 3.462024 -0.822226 0.000000 0.000000 0.000000 0.942918 3.908662 0.772034 1.050321 10.131889 -6.767321 -9.200015 4.536069 -65.053133 177.643781 -67.514084 176.152573 0.000000 0.000000 0.000000 0.154588 3.900286 0.848846 0.560811 10.948587 11.513478 -7.465540 35.928229 45.181121 -177.248081 75.982262 177.271317 0.000000 0.000000 0.000000 
6.447116 75.153893 -4.777740 0.000000 0.000000 0.000000 98.371458 -87.956553 101.672482 -36.242374 -18.310101 17.057139 53.214246 -11.616127 19.822496 -20.000247 -2.818290 -27.867896 0.000000 0.000000 0.000000 73.602487 -87.287400 75.829928 -20.933510 9.271623 -35.379000 50.582421 9.910882 -8.714902 -31.215109 -0.506475 33.391244 0.000000 0.000000 0.000000 43.803096 -86.156614 46.782295 -0.920962 3.007947 -0.183544 2.500677 3.909805 3.505106 0.160655 3.718126 0.908457 0.000000 0.000000 0.000000 0.759094 3.699833 0.696445 -1.271864 3.381662 -0.832818 0.000000 0.000000 0.000000 1.000782 3.919697 0.726666 0.961268 10.222283 -5.958248 -7.211494 2.449794 -65.142164 177.013109 -66.604433 175.227725 0.000000 0.000000 0.000000 0.219987 3.902842 0.845114 0.504237 9.997337 10.180662 -8.074494 35.681813 46.831346 -178.002421 74.240919 177.777120 0.000000 0.000000 0.000000 
6.026276 77.573997 -4.825874 0.000000 0.000000 0.000000 25.357742 -86.908065 28.308047 -36.166142 -16.868834 18.328109 47.028007 -13.044285 17.029485 -14.720019 -4.289237 -30.519836 0.000000 0.000000 0.000000 20.617775 -86.387509 22.707604 -20.265293 6.639025 -34.851853 49.433347 9.159225 -7.754109 -25.100235 0.426600 33.414009 0.000000 0.000000 0.000000 13.577466 -84.481715 16.265554 -0.615658 2.423163 -0.329748 1.883771 3.745887 4.142872 0.209810 3.664750 0.814449 0.000000 0.000000 0.000000 0.618206 3.608432 0.568935 -1.166822 3.230991 -0.826687 0.000000 0.000000 0.000000 0.991126 3.812837 0.600260 0.892355 9.777454 -5.108010 -5.966379 -0.880994 -63.668469 176.680492 -65.822485 174.704382 0.000000 0.000000 0.000000 0.326893 3.834051 0.750994 0.464889 9.028612 8.897381 -7.407136 34.413024 47.328269 -178.825841 71.282108 178.372166 0.000000 0.000000 0.000000 
5.489314 81.809845 -4.779411 0.000000 0.000000 0.000000 6.033801 -80.602530 8.314745 -35.444795 -13.145108 18.956189 36.855066 -13.478903 13.049069 -4.805257 -6.267908 -31.312548 0.000000 0.000000 0.000000 1.517277 -80.353289 3.332976 -20.042248 3.972167 -33.479477 47.502019 8.247062 -6.742452 -11.720400 3.250512 31.143139 0.000000 0.000000 0.000000 0.615766 -79.220769 3.038959 0.065829 1.284198 -0.675114 0.953609 3.410315 4.625138 0.191181 3.481051 0.727872 0.000000 0.000000 0.000000 0.390001 3.453184 0.454034 -1.064078 3.027263 -0.808054 0.000000 0.000000 0.000000 0.915090 3.621339 0.439647 0.876023 8.847487 -4.570600 -5.611234 -4.672164 -61.277862 176.518985 -65.394362 174.574827 0.000000 0.000000 0.000000 0.428844 3.699394 0.608095 0.423195 8.193795 8.102635 -5.174289 31.866135 45.904725 -179.351356 67.564136 178.793958 0.000000 0.000000 0.000000 
4.968627 86.937347 -4.583076 0.000000 0.000000 0.000000 3.686606 -72.429245 5.213815 -34.371527 -9.074037 18.281821 27.096306 -12.691485 9.534566 5.000880 -7.144756 -29.358479 0.000000 0.000000 0.000000 -0.714682 -71.848488 0.907121 -20.853321 2.590624 -31.460271 45.465909 7.738884 -6.231130 6.415232 6.714522 27.010835 0.000000 0.000000 0.000000 -1.452515 -71.762714 0.791723 0.443562 -0.054579 -0.730085 0.111012 2.977896 4.803254 0.196003 3.213578 0.668256 0.000000 0.000000 0.000000 0.225746 3.240803 0.376021 -0.951503 2.806888 -0.789649 0.000000 0.000000 0.000000 0.762524 3.369301 0.302135 0.922290 7.622083 -4.526891 -5.828668 -8.127509 -58.782835 176.518876 -65.287839 174.842925 0.000000 0.000000 0.000000 0.447334 3.486596 0.460832 0.388714 7.467599 7.864861 -2.276626 28.110489 42.932875 -179.454970 64.357669 178.921313 0.000000 0.000000 0.000000 
4.605363 91.788879 -4.366718 0.000000 0.000000 0.000000 3.722538 -64.517858 4.471982 -33.559749 -5.786462 16.916985 21.846818 -11.258680 7.226433 11.616822 -6.336758 -25.819126 0.000000 0.000000 0.000000 0.045456 -63.213613 1.444470 -22.892661 2.857495 -28.515854 43.706090 7.863449 -6.026252 21.962639 8.801888 22.349865 0.000000 0.000000 0.000000 -0.778470 -63.956710 1.288749 0.660335 -0.796663 -0.625979 -0.372303 2.546894 4.623729 0.277564 2.860538 0.612637 0.000000 0.000000 0.000000 0.212900 2.963321 0.329712 -0.826208 2.604944 -0.780014 0.000000 0.000000 0.000000 0.636066 3.065679 0.177062 1.007919 6.278735 -4.968845 -6.417478 -10.867098 -56.895100 176.574365 -65.589050 175.325915 0.000000 0.000000 0.000000 0.422111 3.186173 0.325567 0.379707 6.784000 8.013104 0.188932 23.874993 39.332522 -179.316795 62.931423 178.888269 0.000000 0.000000 0.000000 
4.465987 95.567856 -4.251137 0.000000 0.000000 0.000000 4.160570 -58.159997 4.329611 -33.895548 -2.803597 16.112905 22.461519 -9.380554 5.477803 15.274528 -4.641767 -22.398058 0.000000 0.000000 0.000000 0.725461 -56.266224 2.013937 -26.407837 3.457782 -25.323857 42.726262 7.821796 -5.381081 28.873887 8.814259 19.196300 0.000000 0.000000 0.000000 0.460238 -57.298245 2.282081 0.886356 -1.194918 -0.398227 -0.310777 2.081831 4.153562 0.425447 2.449373 0.531663 0.000000 0.000000 0.000000 0.413001 2.627650 0.260034 -0.728011 2.428287 -0.798057 0.000000 0.000000 0.000000 0.583846 2.724200 0.068907 1.074369 5.055788 -5.784419 -7.228755 -12.779888 -56.061486 176.710791 -66.062723 175.918024 0.000000 0.000000 0.000000 0.434213 2.826761 0.201972 0.392872 6.213517 8.099981 1.330522 20.227477 36.335449 -179.149660 63.879686 178.830499 0.000000 0.000000 0.000000 
4.619153 97.884491 -4.251698 0.000000 0.000000 0.000000 4.614291 -53.464624 4.404894 -35.546442 0.160053 16.547807 28.182556 -7.602634 3.795560 16.725706 -3.195252 -20.182289 0.000000 0.000000 0.000000 1.002610 -51.618694 2.316829 -30.837484 3.306983 -22.799539 41.675810 7.312538 -4.173695 27.742833 7.667296 18.065413 0.000000 0.000000 0.000000 2.038843 -52.404906 3.410434 0.912546 -0.995690 -0.315877 0.170902 1.507714 3.447416 0.619800 2.001598 0.390759 0.000000 0.000000 0.000000 0.744794 2.227953 0.112971 -0.714955 2.280808 -0.833637 0.000000 0.000000 0.000000 0.639003 2.334371 -0.058105 1.124991 4.025644 -6.659078 -8.204667 -14.054923 -56.325094 176.982414 -66.438882 176.540118 0.000000 0.000000 0.000000 0.517863 2.402593 0.066599 0.430179 5.748454 7.945551 0.945235 17.921254 34.845836 -179.071304 66.713600 178.777551 0.000000 0.000000 0.000000 
4.821588 98.626862 -4.589310 0.000000 0.000000 0.000000 5.290998 -49.988949 4.643499 -37.416551 2.303169 17.773088 35.391059 -6.023024 2.362468 18.240734 -2.284110 -19.354890 0.000000 0.000000 0.000000 1.756591 -48.935044 2.738076 -34.867361 3.049544 -21.163251 39.261051 6.975694 -2.939177 22.313002 6.954921 18.844907 0.000000 0.000000 0.000000 3.655336 -49.087490 4.380641 0.946738 -0.408002 -0.566602 0.783184 0.816644 2.547564 0.803785 1.504173 0.164119 0.000000 0.000000 0.000000 1.102847 1.760072 -0.118139 -0.806769 2.138349 -0.855646 0.000000 0.000000 0.000000 0.847082 1.891789 -0.245515 1.148577 3.227452 -7.305885 -9.659590 -15.015628 -57.425936 177.385941 -66.747744 177.100316 0.000000 0.000000 0.000000 0.711529 1.923576 -0.116825 0.505583 5.509559 7.590554 -0.300960 16.754632 34.860872 -179.245078 70.120156 178.925425 0.000000 0.000000 0.000000 
4.938288 97.869324 -4.921421 0.000000 0.000000 0.000000 6.164940 -46.859028 5.099704 -37.702023 3.326214 18.645966 41.138410 -4.549004 1.799037 19.672214 -1.426936 -19.626690 0.000000 0.000000 0.000000 2.803920 -47.224068 3.199491 -37.531295 3.893075 -20.316703 35.555987 7.613616 -2.343493 16.759650 7.877921 21.899878 0.000000 0.000000 0.000000 5.029225 -46.273073 5.059108 0.811876 0.221868 -0.831538 1.306984 0.044639 1.461229 0.923541 0.999446 -0.120003 0.000000 0.000000 0.000000 1.377573 1.260932 -0.409025 -1.011404 1.968962 -0.840492 0.000000 0.000000 0.000000 1.121587 1.408111 -0.472475 1.137107 2.623829 -7.527879 -11.838219 -15.915401 -58.996674 178.019715 -67.058866 177.702644 0.000000 0.000000 0.000000 0.992113 1.415718 -0.356712 0.613567 5.552702 7.215233 -1.987474 15.788896 36.035016 -179.714025 72.616659 179.397473 0.000000 0.000000 0.000000 
